999
FreeCAD v0.20 Unknown
  0
SECTION
  2
HEADER
  9
$ACADVER
  1
AC1014
  9
$ACADMAINTVER
 70
     9
  9
$DWGCODEPAGE
  3
ANSI_1252
  9
$TEXTSTYLE
  7
STANDARD
  9
$DIMSTYLE
  2
STANDARD
  9
$DIMTXSTY
  7
STANDARD
  9
$CMLSTYLE
  2
STANDARD
  9
$LUNITS
 70
2
  9
$INSUNITS
 70
4
  9
$PEXTMAX
 10
50
 20
50
 30
50
  9
$PEXTMIN
 10
0
 20
0
 30
0
  9
$HANDSEED
  5
FFFF
  0
ENDSEC
  0
SECTION
  2
CLASSES
  0
CLASS
  1
ACDBDICTIONARYWDFLT
  2
AcDbDictionaryWithDefault
  3
ObjectDBX Classes
 90
        0
280
     0
281
     0
  0
CLASS
  1
XRECORD
  2
AcDbXrecord
  3
ObjectDBX Classes
 90
        0
280
     0
281
     0
  0
CLASS
  1
LWPOLYLINE
  2
AcDbPolyline
  3
ObjectDBX Classes
 90
        0
280
     0
281
     1
  0
ENDSEC
  0
SECTION
  2
TABLES
  0
TABLE
  2
VPORT
  5
20
330
0
100
AcDbSymbolTable
 70
     1
  0
VPORT
  5
21
330
20
100
AcDbSymbolTableRecord
100
AcDbViewportTableRecord
  2
*ACTIVE
 70
     0
  0
ENDTAB
  0
TABLE
  2
LTYPE
  5
22
330
0
100
AcDbSymbolTable
 70
     1
  0
LTYPE
  5
23
330
21
100
AcDbSymbolTableRecord
100
AcDbLinetypeTableRecord
  2
BYBLOCK
 70
     0
  3

 72
    65
 73
     0
 40
0.0
  0
LTYPE
  5
24
330
21
100
AcDbSymbolTableRecord
100
AcDbLinetypeTableRecord
  2
BYLAYER
 70
     0
  3

 72
    65
 73
     0
 40
0.0
  0
LTYPE
  5
25
330
21
100
AcDbSymbolTableRecord
100
AcDbLinetypeTableRecord
  2
CONTINUOUS
 70
     0
  3
Solid line
 72
    65
 73
     0
 40
0.0
  0
ENDTAB
  0
TABLE
  2
LAYER
  5
A78
330
0
100
AcDbSymbolTable
 70
3
  0
LAYER
  5
A79
330
A78
100
AcDbSymbolTableRecord
100
AcDbLayerTableRecord
  2
0
 70
   0
 62
   7
  6
CONTINUOUS
  0
LAYER
  5
A7A
330
A78
100
AcDbSymbolTableRecord
100
AcDbLayerTableRecord
  2
none
 70
    0
 62
    7
  6
CONTINUOUS
  0
LAYER
  5
A7B
330
A78
100
AcDbSymbolTableRecord
100
AcDbLayerTableRecord
  2
Sketch014
 70
    0
 62
    7
  6
CONTINUOUS
  0
ENDTAB
  0
TABLE
  2
STYLE
  5
70
330
0
100
AcDbSymbolTable
 70
     2
  0
STYLE
  5
71
330
70
100
AcDbSymbolTableRecord
100
AcDbTextStyleTableRecord
  2
STANDARD
 70
     0
 40
0.0
 41
1.0
 50
0.0
 71
     0
 42
2.5
  3
arial.ttf
  4

  0
STYLE
  5
72
330
70
100
AcDbSymbolTableRecord
100
AcDbTextStyleTableRecord
  2
ANNOTATIVE
 70
     0
 40
0.0
 41
1.0
 50
0.0
 71
     0
 42
2.5
  3
arial.ttf
  4

  0
ENDTAB
  0
TABLE
  2
VIEW
  5
73
330
0
100
AcDbSymbolTable
 70
     0
  0
ENDTAB
  0
TABLE
  2
UCS
  5
74
330
0
100
AcDbSymbolTable
 70
     0
  0
ENDTAB
  0
TABLE
  2
APPID
  5
75
330
0
100
AcDbSymbolTable
 70
     2
  0
APPID
  5
76
330
75
100
AcDbSymbolTableRecord
100
AcDbRegAppTableRecord
  2
ACAD
 70
     0
  0
APPID
  5
77
330
75
100
AcDbSymbolTableRecord
100
AcDbRegAppTableRecord
  2
ACADANNOTATIVE
 70
     0
  0
ENDTAB
  0
TABLE
  2
DIMSTYLE
  5
78
330
0
100
AcDbSymbolTable
 70
     2
  0
DIMSTYLE
105
79
330
78
100
AcDbSymbolTableRecord
100
AcDbDimStyleTableRecord
  2
STANDARD
 70
     0
  3

  4

  5

  6

  7

 40
0.0
 41
2.5
 42
0.625
 43
3.75
 44
1.25
 45
0.0
 46
0.0
 47
0.0
 48
0.0
140
2.5
141
2.5
142
0.0
143
0.03937007874016
144
1.0
145
0.0
146
1.0
147
0.625
 71
     0
 72
     0
 73
     0
 74
     0
 75
     0
 76
     0
 77
     1
 78
     8
170
     0
171
     3
172
     1
173
     0
174
     0
175
     0
176
     0
177
     0
178
     0
270
     2
271
     2
272
     2
273
     2
274
     3
340
71
275
     0
280
     0
281
     0
282
     0
283
     0
284
     8
285
     0
286
     0
287
     3
288
     0
  0
ENDTAB
  0
TABLE
  2
BLOCK_RECORD
  5
A01
330
0
100
AcDbSymbolTable
  70
5
  0
BLOCK_RECORD
  5
A02
330
A01
100
AcDbSymbolTableRecord
100
AcDbBlockTableRecord
  2
*MODEL_SPACE
  0
BLOCK_RECORD
  5
A03
330
A01
100
AcDbSymbolTableRecord
100
AcDbBlockTableRecord
  2
*PAPER_SPACE
  0
ENDTAB
  0
ENDSEC
  0
SECTION
  2
BLOCKS
  0
BLOCK
  5
A04
330
A02
100
AcDbEntity
  8
0
100
AcDbBlockBegin
  2
*MODEL_SPACE
 70
   0
 10
0
 20
0
 30
0
  3
*MODEL_SPACE
  1
 
  0
ENDBLK
  5
A05
330
A02
100
AcDbEntity
  8
0
100
AcDbBlockEnd
  0
BLOCK
  5
A06
330
A03
100
AcDbEntity
 67
1
  8
0
100
AcDbBlockBegin
  2
*PAPER_SPACE
 70
   0
 10
0
 20
0
 30
0
  3
*PAPER_SPACE
  1
 
  0
ENDBLK
  5
A07
330
A03
100
AcDbEntity
 67
    1
  8
0
100
AcDbBlockEnd
  0
ENDSEC
  0
SECTION
  2
ENTITIES
  0
ARC
  5
A08
330
A02
100
AcDbEntity
  8
Sketch014
100
AcDbCircle
 10
-11.508
 20
21.4509
 30
6.36
 40
7.16998
100
AcDbArc
 50
26.6667
 51
33.4747
  0
ARC
  5
A09
330
A02
100
AcDbEntity
  8
Sketch014
100
AcDbCircle
 10
0
 20
0
 30
6.36
 40
26
100
AcDbArc
 50
102.274
 51
107.726
  0
ARC
  5
A0A
330
A02
100
AcDbEntity
  8
Sketch014
100
AcDbCircle
 10
-0.759218
 20
24.3311
 30
6.36
 40
7.16998
100
AcDbArc
 50
176.525
 51
-176.667
  0
ARC
  5
A0B
330
A02
100
AcDbEntity
  8
Sketch014
100
AcDbCircle
 10
3.20298
 20
24.1416
 30
6.36
 40
11.1224
100
AcDbArc
 50
-178.829
 51
-174.505
  0
LINE
  5
A0C
330
A02
100
AcDbEntity
  8
Sketch014
100
AcDbLine
 10
-8.01843
 20
20.4983
 30
6.36
 11
-7.86827
 21
23.0764
 31
6.36
  0
ARC
  5
A0D
330
A02
100
AcDbEntity
  8
Sketch014
100
AcDbCircle
 10
-12.2673
 20
21.2475
 30
6.36
 40
4.31438
100
AcDbArc
 50
-60
 51
-10
  0
ARC
  5
A0E
330
A02
100
AcDbEntity
  8
Sketch014
100
AcDbCircle
 10
-12.2673
 20
21.2475
 30
6.36
 40
4.31438
100
AcDbArc
 50
-110
 51
-60
  0
ARC
  5
A0F
330
A02
100
AcDbEntity
  8
Sketch014
100
AcDbCircle
 10
-9.93878
 20
27.6449
 30
6.36
 40
11.1224
100
AcDbArc
 50
-123.333
 51
-110
  0
LINE
  5
A10
330
A02
100
AcDbEntity
  8
Sketch014
100
AcDbLine
 10
-16.7518
 20
18.8135
 30
6.36
 11
-16.0506
 21
18.3523
 31
6.36
  0
ARC
  5
A11
330
A02
100
AcDbEntity
  8
Sketch014
100
AcDbCircle
 10
-20.6917
 20
12.823
 30
6.36
 40
7.16998
100
AcDbArc
 50
56.6667
 51
63.4747
  0
ARC
  5
A12
330
A02
100
AcDbEntity
  8
Sketch014
100
AcDbCircle
 10
0
 20
0
 30
6.36
 40
26
100
AcDbArc
 50
132.274
 51
137.726
  0
ARC
  5
A13
330
A02
100
AcDbEntity
  8
Sketch014
100
AcDbCircle
 10
-12.823
 20
20.6917
 30
6.36
 40
7.16998
100
AcDbArc
 50
-153.475
 51
-146.667
  0
ARC
  5
A14
330
A02
100
AcDbEntity
  8
Sketch014
100
AcDbCircle
 10
-9.29691
 20
22.5087
 30
6.36
 40
11.1224
100
AcDbArc
 50
-148.829
 51
-144.505
  0
LINE
  5
A15
330
A02
100
AcDbEntity
  8
Sketch014
100
AcDbLine
 10
-17.1933
 20
13.7429
 30
6.36
 11
-18.3523
 21
16.0506
 31
6.36
  0
ARC
  5
A16
330
A02
100
AcDbEntity
  8
Sketch014
100
AcDbCircle
 10
-21.2475
 20
12.2673
 30
6.36
 40
4.31437
100
AcDbArc
 50
-30
 51
20
  0
ARC
  5
A17
330
A02
100
AcDbEntity
  8
Sketch014
100
AcDbCircle
 10
-21.2475
 20
12.2673
 30
6.36
 40
4.31438
100
AcDbArc
 50
-80
 51
-30
  0
ARC
  5
A18
330
A02
100
AcDbEntity
  8
Sketch014
100
AcDbCircle
 10
-22.4297
 20
18.9718
 30
6.36
 40
11.1224
100
AcDbArc
 50
-93.3333
 51
-80
  0
LINE
  5
A19
330
A02
100
AcDbEntity
  8
Sketch014
100
AcDbLine
 10
-23.9142
 20
7.91707
 30
6.36
 11
-23.0764
 21
7.86827
 31
6.36
  0
ARC
  5
A1A
330
A02
100
AcDbEntity
  8
Sketch014
100
AcDbCircle
 10
-24.3311
 20
0.759218
 30
6.36
 40
7.16998
100
AcDbArc
 50
86.6667
 51
93.4747
  0
ARC
  5
A1B
330
A02
100
AcDbEntity
  8
Sketch014
100
AcDbCircle
 10
0
 20
0
 30
6.36
 40
26
100
AcDbArc
 50
162.274
 51
167.726
  0
ARC
  5
A1C
330
A02
100
AcDbEntity
  8
Sketch014
100
AcDbCircle
 10
-21.4509
 20
11.508
 30
6.36
 40
7.16998
100
AcDbArc
 50
-123.475
 51
-116.667
  0
ARC
  5
A1D
330
A02
100
AcDbEntity
  8
Sketch014
100
AcDbCircle
 10
-19.3057
 20
14.8446
 30
6.36
 40
11.1224
100
AcDbArc
 50
-118.829
 51
-114.505
  0
LINE
  5
A1E
330
A02
100
AcDbEntity
  8
Sketch014
100
AcDbLine
 10
-21.7613
 20
3.305
 30
6.36
 11
-23.9189
 21
4.72409
 31
6.36
  0
ARC
  5
A1F
330
A02
100
AcDbEntity
  8
Sketch014
100
AcDbCircle
 10
-24.5345
 20
6.05e-15
 30
6.36
 40
4.31437
100
AcDbArc
 50
-1.29488e-13
 51
50
  0
ARC
  5
A20
330
A02
100
AcDbEntity
  8
Sketch014
100
AcDbCircle
 10
-24.5345
 20
-1.371e-14
 30
6.36
 40
4.31437
100
AcDbArc
 50
-50
 51
1.59235e-13
  0
ARC
  5
A21
330
A02
100
AcDbEntity
  8
Sketch014
100
AcDbCircle
 10
-28.9106
 20
5.21523
 30
6.36
 40
11.1224
100
AcDbArc
 50
-63.3333
 51
-50
  0
LINE
  5
A22
330
A02
100
AcDbEntity
  8
Sketch014
100
AcDbLine
 10
-24.6688
 20
-5.10071
 30
6.36
 11
-23.9189
 21
-4.72409
 31
6.36
  0
ARC
  5
A23
330
A02
100
AcDbEntity
  8
Sketch014
100
AcDbCircle
 10
-21.4509
 20
-11.508
 30
6.36
 40
7.16998
100
AcDbArc
 50
116.667
 51
123.475
  0
ARC
  5
A24
330
A02
100
AcDbEntity
  8
Sketch014
100
AcDbCircle
 10
0
 20
0
 30
6.36
 40
26
100
AcDbArc
 50
-167.726
 51
-162.274
  0
ARC
  5
A25
330
A02
100
AcDbEntity
  8
Sketch014
100
AcDbCircle
 10
-24.3311
 20
-0.759218
 30
6.36
 40
7.16998
100
AcDbArc
 50
-93.4747
 51
-86.6667
  0
ARC
  5
A26
330
A02
100
AcDbEntity
  8
Sketch014
100
AcDbCircle
 10
-24.1416
 20
3.20298
 30
6.36
 40
11.1224
100
AcDbArc
 50
-88.8287
 51
-84.5047
  0
LINE
  5
A27
330
A02
100
AcDbEntity
  8
Sketch014
100
AcDbLine
 10
-20.4983
 20
-8.01843
 30
6.36
 11
-23.0764
 21
-7.86827
 31
6.36
  0
ARC
  5
A28
330
A02
100
AcDbEntity
  8
Sketch014
100
AcDbCircle
 10
-21.2475
 20
-12.2673
 30
6.36
 40
4.31438
100
AcDbArc
 50
30
 51
80
  0
ARC
  5
A29
330
A02
100
AcDbEntity
  8
Sketch014
100
AcDbCircle
 10
-21.2475
 20
-12.2673
 30
6.36
 40
4.31438
100
AcDbArc
 50
-20
 51
30
  0
ARC
  5
A2A
330
A02
100
AcDbEntity
  8
Sketch014
100
AcDbCircle
 10
-27.6449
 20
-9.93878
 30
6.36
 40
11.1224
100
AcDbArc
 50
-33.3333
 51
-20
  0
LINE
  5
A2B
330
A02
100
AcDbEntity
  8
Sketch014
100
AcDbLine
 10
-18.8135
 20
-16.7518
 30
6.36
 11
-18.3523
 21
-16.0506
 31
6.36
  0
ARC
  5
A2C
330
A02
100
AcDbEntity
  8
Sketch014
100
AcDbCircle
 10
-12.823
 20
-20.6917
 30
6.36
 40
7.16998
100
AcDbArc
 50
146.667
 51
153.475
  0
ARC
  5
A2D
330
A02
100
AcDbEntity
  8
Sketch014
100
AcDbCircle
 10
0
 20
0
 30
6.36
 40
26
100
AcDbArc
 50
-137.726
 51
-132.274
  0
ARC
  5
A2E
330
A02
100
AcDbEntity
  8
Sketch014
100
AcDbCircle
 10
-20.6917
 20
-12.823
 30
6.36
 40
7.16998
100
AcDbArc
 50
-63.4747
 51
-56.6667
  0
ARC
  5
A2F
330
A02
100
AcDbEntity
  8
Sketch014
100
AcDbCircle
 10
-22.5087
 20
-9.29691
 30
6.36
 40
11.1224
100
AcDbArc
 50
-58.8287
 51
-54.5047
  0
LINE
  5
A30
330
A02
100
AcDbEntity
  8
Sketch014
100
AcDbLine
 10
-13.7429
 20
-17.1933
 30
6.36
 11
-16.0506
 21
-18.3523
 31
6.36
  0
ARC
  5
A31
330
A02
100
AcDbEntity
  8
Sketch014
100
AcDbCircle
 10
-12.2673
 20
-21.2475
 30
6.36
 40
4.31438
100
AcDbArc
 50
60
 51
110
  0
ARC
  5
A32
330
A02
100
AcDbEntity
  8
Sketch014
100
AcDbCircle
 10
-12.2673
 20
-21.2475
 30
6.36
 40
4.31438
100
AcDbArc
 50
10
 51
60
  0
ARC
  5
A33
330
A02
100
AcDbEntity
  8
Sketch014
100
AcDbCircle
 10
-18.9718
 20
-22.4297
 30
6.36
 40
11.1224
100
AcDbArc
 50
-3.33333
 51
10
  0
LINE
  5
A34
330
A02
100
AcDbEntity
  8
Sketch014
100
AcDbLine
 10
-7.91707
 20
-23.9142
 30
6.36
 11
-7.86827
 21
-23.0764
 31
6.36
  0
ARC
  5
A35
330
A02
100
AcDbEntity
  8
Sketch014
100
AcDbCircle
 10
-0.759218
 20
-24.3311
 30
6.36
 40
7.16998
100
AcDbArc
 50
176.667
 51
-176.525
  0
ARC
  5
A36
330
A02
100
AcDbEntity
  8
Sketch014
100
AcDbCircle
 10
0
 20
0
 30
6.36
 40
26
100
AcDbArc
 50
-107.726
 51
-102.274
  0
ARC
  5
A37
330
A02
100
AcDbEntity
  8
Sketch014
100
AcDbCircle
 10
-11.508
 20
-21.4509
 30
6.36
 40
7.16998
100
AcDbArc
 50
-33.4747
 51
-26.6667
  0
ARC
  5
A38
330
A02
100
AcDbEntity
  8
Sketch014
100
AcDbCircle
 10
-14.8446
 20
-19.3057
 30
6.36
 40
11.1224
100
AcDbArc
 50
-28.8287
 51
-24.5047
  0
LINE
  5
A39
330
A02
100
AcDbEntity
  8
Sketch014
100
AcDbLine
 10
-3.305
 20
-21.7613
 30
6.36
 11
-4.72409
 21
-23.9189
 31
6.36
  0
ARC
  5
A3A
330
A02
100
AcDbEntity
  8
Sketch014
100
AcDbCircle
 10
-5.05e-15
 20
-24.5345
 30
6.36
 40
4.31437
100
AcDbArc
 50
90
 51
140
  0
ARC
  5
A3B
330
A02
100
AcDbEntity
  8
Sketch014
100
AcDbCircle
 10
1.216e-14
 20
-24.5345
 30
6.36
 40
4.31437
100
AcDbArc
 50
40
 51
90
  0
ARC
  5
A3C
330
A02
100
AcDbEntity
  8
Sketch014
100
AcDbCircle
 10
-5.21523
 20
-28.9106
 30
6.36
 40
11.1224
100
AcDbArc
 50
26.6667
 51
40
  0
LINE
  5
A3D
330
A02
100
AcDbEntity
  8
Sketch014
100
AcDbLine
 10
5.10071
 20
-24.6688
 30
6.36
 11
4.72409
 21
-23.9189
 31
6.36
  0
ARC
  5
A3E
330
A02
100
AcDbEntity
  8
Sketch014
100
AcDbCircle
 10
11.508
 20
-21.4509
 30
6.36
 40
7.16998
100
AcDbArc
 50
-153.333
 51
-146.525
  0
ARC
  5
A3F
330
A02
100
AcDbEntity
  8
Sketch014
100
AcDbCircle
 10
0
 20
0
 30
6.36
 40
26
100
AcDbArc
 50
-77.7258
 51
-72.2742
  0
ARC
  5
A40
330
A02
100
AcDbEntity
  8
Sketch014
100
AcDbCircle
 10
0.759218
 20
-24.3311
 30
6.36
 40
7.16998
100
AcDbArc
 50
-3.47466
 51
3.33333
  0
ARC
  5
A41
330
A02
100
AcDbEntity
  8
Sketch014
100
AcDbCircle
 10
-3.20298
 20
-24.1416
 30
6.36
 40
11.1224
100
AcDbArc
 50
1.17133
 51
5.49534
  0
LINE
  5
A42
330
A02
100
AcDbEntity
  8
Sketch014
100
AcDbLine
 10
8.01843
 20
-20.4983
 30
6.36
 11
7.86827
 21
-23.0764
 31
6.36
  0
ARC
  5
A43
330
A02
100
AcDbEntity
  8
Sketch014
100
AcDbCircle
 10
12.2673
 20
-21.2475
 30
6.36
 40
4.31438
100
AcDbArc
 50
120
 51
170
  0
ARC
  5
A44
330
A02
100
AcDbEntity
  8
Sketch014
100
AcDbCircle
 10
12.2673
 20
-21.2475
 30
6.36
 40
4.31437
100
AcDbArc
 50
70
 51
120
  0
ARC
  5
A45
330
A02
100
AcDbEntity
  8
Sketch014
100
AcDbCircle
 10
9.93878
 20
-27.6449
 30
6.36
 40
11.1224
100
AcDbArc
 50
56.6667
 51
70
  0
LINE
  5
A46
330
A02
100
AcDbEntity
  8
Sketch014
100
AcDbLine
 10
16.7518
 20
-18.8135
 30
6.36
 11
16.0506
 21
-18.3523
 31
6.36
  0
ARC
  5
A47
330
A02
100
AcDbEntity
  8
Sketch014
100
AcDbCircle
 10
20.6917
 20
-12.823
 30
6.36
 40
7.16998
100
AcDbArc
 50
-123.333
 51
-116.525
  0
ARC
  5
A48
330
A02
100
AcDbEntity
  8
Sketch014
100
AcDbCircle
 10
0
 20
0
 30
6.36
 40
26
100
AcDbArc
 50
-47.7258
 51
-42.2742
  0
ARC
  5
A49
330
A02
100
AcDbEntity
  8
Sketch014
100
AcDbCircle
 10
12.823
 20
-20.6917
 30
6.36
 40
7.16998
100
AcDbArc
 50
26.5253
 51
33.3333
  0
ARC
  5
A4A
330
A02
100
AcDbEntity
  8
Sketch014
100
AcDbCircle
 10
9.29691
 20
-22.5087
 30
6.36
 40
11.1224
100
AcDbArc
 50
31.1713
 51
35.4953
  0
LINE
  5
A4B
330
A02
100
AcDbEntity
  8
Sketch014
100
AcDbLine
 10
17.1933
 20
-13.7429
 30
6.36
 11
18.3523
 21
-16.0506
 31
6.36
  0
ARC
  5
A4C
330
A02
100
AcDbEntity
  8
Sketch014
100
AcDbCircle
 10
21.2475
 20
-12.2673
 30
6.36
 40
4.31437
100
AcDbArc
 50
150
 51
-160
  0
ARC
  5
A4D
330
A02
100
AcDbEntity
  8
Sketch014
100
AcDbCircle
 10
21.2475
 20
-12.2673
 30
6.36
 40
4.31438
100
AcDbArc
 50
100
 51
150
  0
ARC
  5
A4E
330
A02
100
AcDbEntity
  8
Sketch014
100
AcDbCircle
 10
22.4297
 20
-18.9718
 30
6.36
 40
11.1224
100
AcDbArc
 50
86.6667
 51
100
  0
LINE
  5
A4F
330
A02
100
AcDbEntity
  8
Sketch014
100
AcDbLine
 10
23.9142
 20
-7.91707
 30
6.36
 11
23.0764
 21
-7.86827
 31
6.36
  0
ARC
  5
A50
330
A02
100
AcDbEntity
  8
Sketch014
100
AcDbCircle
 10
24.3311
 20
-0.759218
 30
6.36
 40
7.16998
100
AcDbArc
 50
-93.3333
 51
-86.5253
  0
ARC
  5
A51
330
A02
100
AcDbEntity
  8
Sketch014
100
AcDbCircle
 10
0
 20
0
 30
6.36
 40
26
100
AcDbArc
 50
-17.7258
 51
-12.2742
  0
ARC
  5
A52
330
A02
100
AcDbEntity
  8
Sketch014
100
AcDbCircle
 10
21.4509
 20
-11.508
 30
6.36
 40
7.16998
100
AcDbArc
 50
56.5253
 51
63.3333
  0
ARC
  5
A53
330
A02
100
AcDbEntity
  8
Sketch014
100
AcDbCircle
 10
19.3057
 20
-14.8446
 30
6.36
 40
11.1224
100
AcDbArc
 50
61.1713
 51
65.4953
  0
LINE
  5
A54
330
A02
100
AcDbEntity
  8
Sketch014
100
AcDbLine
 10
21.7613
 20
-3.305
 30
6.36
 11
23.9189
 21
-4.72409
 31
6.36
  0
ARC
  5
A55
330
A02
100
AcDbEntity
  8
Sketch014
100
AcDbCircle
 10
24.5345
 20
-8.38e-15
 30
6.36
 40
4.31437
100
AcDbArc
 50
180
 51
-130
  0
ARC
  5
A56
330
A02
100
AcDbEntity
  8
Sketch014
100
AcDbCircle
 10
24.5345
 20
1.105e-14
 30
6.36
 40
4.31437
100
AcDbArc
 50
130
 51
-180
  0
ARC
  5
A57
330
A02
100
AcDbEntity
  8
Sketch014
100
AcDbCircle
 10
28.9106
 20
-5.21523
 30
6.36
 40
11.1224
100
AcDbArc
 50
116.667
 51
130
  0
LINE
  5
A58
330
A02
100
AcDbEntity
  8
Sketch014
100
AcDbLine
 10
24.6688
 20
5.10071
 30
6.36
 11
23.9189
 21
4.72409
 31
6.36
  0
ARC
  5
A59
330
A02
100
AcDbEntity
  8
Sketch014
100
AcDbCircle
 10
21.4509
 20
11.508
 30
6.36
 40
7.16998
100
AcDbArc
 50
-63.3333
 51
-56.5253
  0
ARC
  5
A5A
330
A02
100
AcDbEntity
  8
Sketch014
100
AcDbCircle
 10
0
 20
0
 30
6.36
 40
26
100
AcDbArc
 50
12.2742
 51
17.7258
  0
ARC
  5
A5B
330
A02
100
AcDbEntity
  8
Sketch014
100
AcDbCircle
 10
24.3311
 20
0.759218
 30
6.36
 40
7.16998
100
AcDbArc
 50
86.5253
 51
93.3333
  0
ARC
  5
A5C
330
A02
100
AcDbEntity
  8
Sketch014
100
AcDbCircle
 10
24.1416
 20
-3.20298
 30
6.36
 40
11.1224
100
AcDbArc
 50
91.1713
 51
95.4953
  0
LINE
  5
A5D
330
A02
100
AcDbEntity
  8
Sketch014
100
AcDbLine
 10
20.4983
 20
8.01843
 30
6.36
 11
23.0764
 21
7.86827
 31
6.36
  0
ARC
  5
A5E
330
A02
100
AcDbEntity
  8
Sketch014
100
AcDbCircle
 10
21.2475
 20
12.2673
 30
6.36
 40
4.31438
100
AcDbArc
 50
-150
 51
-100
  0
ARC
  5
A5F
330
A02
100
AcDbEntity
  8
Sketch014
100
AcDbCircle
 10
21.2475
 20
12.2673
 30
6.36
 40
4.31437
100
AcDbArc
 50
160
 51
-150
  0
ARC
  5
A60
330
A02
100
AcDbEntity
  8
Sketch014
100
AcDbCircle
 10
27.6449
 20
9.93878
 30
6.36
 40
11.1224
100
AcDbArc
 50
146.667
 51
160
  0
LINE
  5
A61
330
A02
100
AcDbEntity
  8
Sketch014
100
AcDbLine
 10
18.8135
 20
16.7518
 30
6.36
 11
18.3523
 21
16.0506
 31
6.36
  0
ARC
  5
A62
330
A02
100
AcDbEntity
  8
Sketch014
100
AcDbCircle
 10
12.823
 20
20.6917
 30
6.36
 40
7.16998
100
AcDbArc
 50
-33.3333
 51
-26.5253
  0
ARC
  5
A63
330
A02
100
AcDbEntity
  8
Sketch014
100
AcDbCircle
 10
0
 20
0
 30
6.36
 40
26
100
AcDbArc
 50
42.2742
 51
47.7258
  0
ARC
  5
A64
330
A02
100
AcDbEntity
  8
Sketch014
100
AcDbCircle
 10
20.6917
 20
12.823
 30
6.36
 40
7.16998
100
AcDbArc
 50
116.525
 51
123.333
  0
ARC
  5
A65
330
A02
100
AcDbEntity
  8
Sketch014
100
AcDbCircle
 10
22.5087
 20
9.29691
 30
6.36
 40
11.1224
100
AcDbArc
 50
121.171
 51
125.495
  0
LINE
  5
A66
330
A02
100
AcDbEntity
  8
Sketch014
100
AcDbLine
 10
13.7429
 20
17.1933
 30
6.36
 11
16.0506
 21
18.3523
 31
6.36
  0
ARC
  5
A67
330
A02
100
AcDbEntity
  8
Sketch014
100
AcDbCircle
 10
12.2673
 20
21.2475
 30
6.36
 40
4.31437
100
AcDbArc
 50
-120
 51
-70
  0
ARC
  5
A68
330
A02
100
AcDbEntity
  8
Sketch014
100
AcDbCircle
 10
12.2673
 20
21.2475
 30
6.36
 40
4.31438
100
AcDbArc
 50
-170
 51
-120
  0
ARC
  5
A69
330
A02
100
AcDbEntity
  8
Sketch014
100
AcDbCircle
 10
18.9718
 20
22.4297
 30
6.36
 40
11.1224
100
AcDbArc
 50
176.667
 51
-170
  0
LINE
  5
A6A
330
A02
100
AcDbEntity
  8
Sketch014
100
AcDbLine
 10
7.91707
 20
23.9142
 30
6.36
 11
7.86827
 21
23.0764
 31
6.36
  0
ARC
  5
A6B
330
A02
100
AcDbEntity
  8
Sketch014
100
AcDbCircle
 10
0.759218
 20
24.3311
 30
6.36
 40
7.16998
100
AcDbArc
 50
-3.33333
 51
3.47466
  0
ARC
  5
A6C
330
A02
100
AcDbEntity
  8
Sketch014
100
AcDbCircle
 10
0
 20
0
 30
6.36
 40
26
100
AcDbArc
 50
72.2742
 51
77.7258
  0
ARC
  5
A6D
330
A02
100
AcDbEntity
  8
Sketch014
100
AcDbCircle
 10
11.508
 20
21.4509
 30
6.36
 40
7.16998
100
AcDbArc
 50
146.525
 51
153.333
  0
LINE
  5
A6E
330
A02
100
AcDbEntity
  8
Sketch014
100
AcDbLine
 10
4.72409
 20
23.9189
 30
6.36
 11
5.10071
 21
24.6688
 31
6.36
  0
ARC
  5
A6F
330
A02
100
AcDbEntity
  8
Sketch014
100
AcDbCircle
 10
-5.21523
 20
28.9106
 30
6.36
 40
11.1224
100
AcDbArc
 50
-40
 51
-26.6667
  0
ARC
  5
A70
330
A02
100
AcDbEntity
  8
Sketch014
100
AcDbCircle
 10
1.005e-14
 20
24.5345
 30
6.36
 40
4.31437
100
AcDbArc
 50
-90
 51
-40
  0
ARC
  5
A71
330
A02
100
AcDbEntity
  8
Sketch014
100
AcDbCircle
 10
-1.005e-14
 20
24.5345
 30
6.36
 40
4.31437
100
AcDbArc
 50
-140
 51
-90
  0
ARC
  5
A72
330
A02
100
AcDbEntity
  8
Sketch014
100
AcDbCircle
 10
5.21523
 20
28.9106
 30
6.36
 40
11.1224
100
AcDbArc
 50
-153.333
 51
-140
  0
LINE
  5
A73
330
A02
100
AcDbEntity
  8
Sketch014
100
AcDbLine
 10
-5.10071
 20
24.6688
 30
6.36
 11
-4.72409
 21
23.9189
 31
6.36
  0
ARC
  5
A74
330
A02
100
AcDbEntity
  8
Sketch014
100
AcDbCircle
 10
0
 20
0
 30
6.36
 40
7.5125
100
AcDbArc
 50
-70.5625
 51
-109.438
  0
LINE
  5
A75
330
A02
100
AcDbEntity
  8
Sketch014
100
AcDbLine
 10
-2.5
 20
-7.08432
 30
6.36
 11
-2.5
 21
-10.0843
 31
6.36
  0
LINE
  5
A76
330
A02
100
AcDbEntity
  8
Sketch014
100
AcDbLine
 10
-2.5
 20
-10.0843
 30
6.36
 11
2.5
 21
-10.0843
 31
6.36
  0
LINE
  5
A77
330
A02
100
AcDbEntity
  8
Sketch014
100
AcDbLine
 10
2.5
 20
-10.0843
 30
6.36
 11
2.5
 21
-7.08432
 31
6.36
  0
ENDSEC
  0
SECTION
  2
OBJECTS
  0
DICTIONARY
  5
F000
330
0
100
AcDbDictionary
  3
ACAD_GROUP
350
F001
  0
DICTIONARY
  5
F001
330
F000
100
AcDbDictionary
  0
ENDSEC
  0
EOF